<svg xmlns="http://www.w3.org/2000/svg" viewBox="0 0 128 128">
  <defs>
    <!-- Gradient for light theme -->
    <linearGradient id="lightGradient" x1="0%" y1="0%" x2="100%" y2="100%">
      <stop offset="0%" stop-color="#667eea"/>
      <stop offset="100%" stop-color="#764ba2"/>
    </linearGradient>
    
    <!-- Gradient for dark theme -->
    <linearGradient id="darkGradient" x1="0%" y1="0%" x2="100%" y2="100%">
      <stop offset="0%" stop-color="#818cf8"/>
      <stop offset="100%" stop-color="#4facfe"/>
    </linearGradient>
  </defs>
  
  <!-- Background circle -->
  <circle cx="64" cy="64" r="60" class="bg-circle"/>
  
  <!-- Circuit pattern background -->
  <g class="circuit-pattern" opacity="0.3">
    <path d="M20 30 L40 30 L40 50 L60 50" stroke-width="2" fill="none" class="circuit-line"/>
    <path d="M68 50 L88 50 L88 30 L108 30" stroke-width="2" fill="none" class="circuit-line"/>
    <path d="M20 98 L40 98 L40 78 L60 78" stroke-width="2" fill="none" class="circuit-line"/>
    <path d="M68 78 L88 78 L88 98 L108 98" stroke-width="2" fill="none" class="circuit-line"/>
    <circle cx="40" cy="50" r="3" class="circuit-dot"/>
    <circle cx="88" cy="50" r="3" class="circuit-dot"/>
    <circle cx="40" cy="78" r="3" class="circuit-dot"/>
    <circle cx="88" cy="78" r="3" class="circuit-dot"/>
  </g>
  
  <!-- Main 'J' letter -->
  <path d="M45 35 L55 35 L55 75 Q55 85 50 90 Q45 95 35 95 Q25 95 20 90 Q15 85 15 75 L25 75 Q25 80 30 82.5 Q35 85 40 85 Q45 85 45 75 Z" class="main-letter"/>
  
  <!-- Code brackets accent -->
  <g class="code-accent">
    <path d="M75 45 L85 55 L75 65" stroke-width="3" fill="none" class="bracket"/>
    <path d="M95 45 L105 55 L95 65" stroke-width="3" fill="none" class="bracket"/>
  </g>
  
  <!-- Small dots for tech feel -->
  <g class="tech-dots">
    <circle cx="78" cy="40" r="1.5" class="dot"/>
    <circle cx="85" cy="40" r="1.5" class="dot"/>
    <circle cx="92" cy="40" r="1.5" class="dot"/>
    <circle cx="78" cy="70" r="1.5" class="dot"/>
    <circle cx="85" cy="70" r="1.5" class="dot"/>
    <circle cx="92" cy="70" r="1.5" class="dot"/>
  </g>
  
  <style>
    /* Light theme styles */
    .bg-circle {
      fill: url(#lightGradient);
    }
    
    .main-letter {
      fill: #ffffff;
    }
    
    .circuit-line {
      stroke: rgba(255, 255, 255, 0.6);
    }
    
    .circuit-dot {
      fill: rgba(255, 255, 255, 0.8);
    }
    
    .bracket {
      stroke: rgba(255, 255, 255, 0.9);
      stroke-linecap: round;
      stroke-linejoin: round;
    }
    
    .dot {
      fill: rgba(255, 255, 255, 0.7);
    }
    
    /* Dark theme styles */
    @media (prefers-color-scheme: dark) {
      .bg-circle {
        fill: url(#darkGradient);
      }
      
      .main-letter {
        fill: #0f172a;
      }
      
      .circuit-line {
        stroke: rgba(15, 23, 42, 0.6);
      }
      
      .circuit-dot {
        fill: rgba(15, 23, 42, 0.8);
      }
      
      .bracket {
        stroke: rgba(15, 23, 42, 0.9);
      }
      
      .dot {
        fill: rgba(15, 23, 42, 0.7);
      }
    }
  </style>
</svg>
